<svg width="115" height="29" viewBox="0 0 115 29" fill="none" xmlns="http://www.w3.org/2000/svg">
<path d="M11.8906 22H0.720703V2.01172H11.8906V4.22656H3.23633V10.4609H11.3848V12.6484H3.23633V19.7852H11.8906V22ZM18.4258 22H15.9648V0.726562H18.4258V22ZM29.5684 22.2734C27.3171 22.2734 25.5488 21.5944 24.2637 20.2363C22.9876 18.8691 22.3496 16.9915 22.3496 14.6035C22.3496 12.1973 22.9466 10.2832 24.1406 8.86133C25.3346 7.43034 26.9479 6.71484 28.9805 6.71484C30.8672 6.71484 32.3711 7.32552 33.4922 8.54688C34.6133 9.75911 35.1738 11.4043 35.1738 13.4824V14.9727H24.8926C24.9382 16.6771 25.3711 17.9714 26.1914 18.8555C27.0117 19.7396 28.1738 20.1816 29.6777 20.1816C30.4798 20.1816 31.2409 20.1133 31.9609 19.9766C32.681 19.8307 33.5241 19.5527 34.4902 19.1426V21.3027C33.6608 21.6582 32.8815 21.9089 32.1523 22.0547C31.4232 22.2005 30.5618 22.2734 29.5684 22.2734ZM28.9531 8.72461C27.7773 8.72461 26.8477 9.10286 26.1641 9.85938C25.4805 10.6159 25.0749 11.6686 24.9473 13.0176H32.5898C32.5716 11.6139 32.248 10.5475 31.6191 9.81836C30.9902 9.08919 30.1016 8.72461 28.9531 8.72461ZM44.7031 20.2637C46.2161 20.2637 47.3145 19.8581 47.998 19.0469C48.6908 18.2266 49.0371 16.9141 49.0371 15.1094V14.5215C49.0371 12.5163 48.6908 11.0579 47.998 10.1465C47.3053 9.23503 46.1888 8.7793 44.6484 8.7793C43.3906 8.7793 42.4154 9.2806 41.7227 10.2832C41.0391 11.2767 40.6973 12.6986 40.6973 14.5488C40.6973 16.4082 41.0299 17.8255 41.6953 18.8008C42.3698 19.776 43.3724 20.2637 44.7031 20.2637ZM49.0098 21.8633L49.0918 20.0176H48.9824C47.9707 21.5215 46.4212 22.2734 44.334 22.2734C42.3926 22.2734 40.875 21.599 39.7812 20.25C38.6966 18.8919 38.1543 16.9824 38.1543 14.5215C38.1543 12.1061 38.7012 10.2012 39.7949 8.80664C40.8978 7.41211 42.4017 6.71484 44.3066 6.71484C46.3392 6.71484 47.9069 7.47135 49.0098 8.98438H49.1602L49.4883 6.98828H51.4434V22.2461C51.4434 24.3971 50.8965 26.015 49.8027 27.0996C48.7181 28.1842 47.0273 28.7266 44.7305 28.7266C42.543 28.7266 40.7428 28.4076 39.3301 27.7695V25.5C40.7884 26.2839 42.6341 26.6758 44.8672 26.6758C46.1432 26.6758 47.1504 26.3021 47.8887 25.5547C48.6361 24.8073 49.0098 23.7728 49.0098 22.4512V21.8633ZM65.4844 22L65.0059 19.8672H64.8965C64.1491 20.806 63.4017 21.444 62.6543 21.7812C61.916 22.1094 60.9818 22.2734 59.8516 22.2734C58.375 22.2734 57.2174 21.8861 56.3789 21.1113C55.5404 20.3366 55.1211 19.2428 55.1211 17.8301C55.1211 14.7858 57.5228 13.1908 62.3262 13.0449L64.8691 12.9492V12.0605C64.8691 10.9212 64.623 10.0827 64.1309 9.54492C63.6387 8.99805 62.8503 8.72461 61.7656 8.72461C60.9727 8.72461 60.2207 8.8431 59.5098 9.08008C58.8079 9.31706 58.1471 9.58138 57.5273 9.87305L56.7754 8.02734C57.5319 7.6263 58.3568 7.31185 59.25 7.08398C60.1432 6.85612 61.0273 6.74219 61.9023 6.74219C63.7161 6.74219 65.0651 7.14323 65.9492 7.94531C66.8333 8.7474 67.2754 10.0234 67.2754 11.7734V22H65.4844ZM60.4121 20.291C61.7884 20.291 62.8685 19.9219 63.6523 19.1836C64.4453 18.4362 64.8418 17.3789 64.8418 16.0117V14.6582L62.627 14.7539C60.9043 14.8177 59.6465 15.0911 58.8535 15.5742C58.0697 16.0573 57.6777 16.8184 57.6777 17.8574C57.6777 18.6413 57.9147 19.2428 58.3887 19.6621C58.8717 20.0814 59.5462 20.291 60.4121 20.291ZM82.1641 22V12.4023C82.1641 11.181 81.8906 10.2741 81.3438 9.68164C80.806 9.08008 79.9583 8.7793 78.8008 8.7793C77.2604 8.7793 76.1393 9.20768 75.4375 10.0645C74.7448 10.9121 74.3984 12.2975 74.3984 14.2207V22H71.9375V6.98828H73.9199L74.2891 9.03906H74.4258C74.8906 8.30078 75.5423 7.73112 76.3809 7.33008C77.2194 6.91992 78.1445 6.71484 79.1562 6.71484C80.9974 6.71484 82.3646 7.16146 83.2578 8.05469C84.151 8.94792 84.5977 10.3379 84.5977 12.2246V22H82.1641ZM95.2617 22.2734C93.1016 22.2734 91.4199 21.6126 90.2168 20.291C89.0137 18.9603 88.4121 17.0553 88.4121 14.5762C88.4121 12.0605 89.0182 10.1237 90.2305 8.76562C91.4518 7.39844 93.1882 6.71484 95.4395 6.71484C96.1686 6.71484 96.8887 6.79232 97.5996 6.94727C98.3197 7.0931 98.9121 7.28451 99.377 7.52148L98.625 9.57227C97.3581 9.09831 96.278 8.86133 95.3848 8.86133C93.8717 8.86133 92.7552 9.33984 92.0352 10.2969C91.3151 11.2448 90.9551 12.6621 90.9551 14.5488C90.9551 16.3626 91.3151 17.7526 92.0352 18.7188C92.7552 19.6758 93.8216 20.1543 95.2344 20.1543C96.556 20.1543 97.8548 19.8626 99.1309 19.2793V21.4668C98.0918 22.0046 96.8021 22.2734 95.2617 22.2734ZM109.084 22.2734C106.833 22.2734 105.064 21.5944 103.779 20.2363C102.503 18.8691 101.865 16.9915 101.865 14.6035C101.865 12.1973 102.462 10.2832 103.656 8.86133C104.85 7.43034 106.464 6.71484 108.496 6.71484C110.383 6.71484 111.887 7.32552 113.008 8.54688C114.129 9.75911 114.689 11.4043 114.689 13.4824V14.9727H104.408C104.454 16.6771 104.887 17.9714 105.707 18.8555C106.527 19.7396 107.689 20.1816 109.193 20.1816C109.995 20.1816 110.757 20.1133 111.477 19.9766C112.197 19.8307 113.04 19.5527 114.006 19.1426V21.3027C113.176 21.6582 112.397 21.9089 111.668 22.0547C110.939 22.2005 110.077 22.2734 109.084 22.2734ZM108.469 8.72461C107.293 8.72461 106.363 9.10286 105.68 9.85938C104.996 10.6159 104.59 11.6686 104.463 13.0176H112.105C112.087 11.6139 111.764 10.5475 111.135 9.81836C110.506 9.08919 109.617 8.72461 108.469 8.72461Z" fill="black"/>
</svg>
